<svg width="16" height="16" viewBox="0 0 16 16" fill="none" xmlns="http://www.w3.org/2000/svg">
<g clip-path="url(#clip0_298_74)">
<path fill-rule="evenodd" clip-rule="evenodd" d="M8.00033 1.99999C4.68662 1.99999 2.00033 4.68628 2.00033 7.99999C2.00033 11.3137 4.68662 14 8.00033 14C11.3141 14 14.0003 11.3137 14.0003 7.99999C14.0003 4.68628 11.3141 1.99999 8.00033 1.99999ZM0.666992 7.99999C0.666992 3.9499 3.95024 0.666656 8.00033 0.666656C12.0504 0.666656 15.3337 3.9499 15.3337 7.99999C15.3337 12.0501 12.0504 15.3333 8.00033 15.3333C3.95024 15.3333 0.666992 12.0501 0.666992 7.99999ZM8.00033 3.99999C8.36853 3.99999 8.66699 4.29847 8.66699 4.66666V8.66666C8.66699 9.03486 8.36853 9.33332 8.00033 9.33332C7.63213 9.33332 7.33366 9.03486 7.33366 8.66666V4.66666C7.33366 4.29847 7.63213 3.99999 8.00033 3.99999ZM8.00033 12C8.36853 12 8.66699 11.7015 8.66699 11.3333C8.66699 10.9651 8.36853 10.6667 8.00033 10.6667C7.63213 10.6667 7.33366 10.9651 7.33366 11.3333C7.33366 11.7015 7.63213 12 8.00033 12Z" fill="#8D0000"/>
</g>
<defs>
<clipPath id="clip0_298_74">
<rect width="16" height="16" fill="white"/>
</clipPath>
</defs>
</svg>
