<svg width="18" height="18" viewBox="0 0 18 18" fill="none" xmlns="http://www.w3.org/2000/svg">
<path d="M8.97852 0.623657C10.1411 0.623657 11.233 0.844334 12.2539 1.28479C13.2768 1.7262 14.1662 2.3251 14.9219 3.08069C15.6776 3.83638 16.2763 4.72562 16.7178 5.74866C17.1584 6.76976 17.3789 7.86123 17.3789 9.02405C17.3789 10.1869 17.1584 11.2783 16.7178 12.2994C16.2763 13.3225 15.6776 14.2117 14.9219 14.9674C14.1662 15.723 13.2768 16.3219 12.2539 16.7633C11.233 17.2038 10.1411 17.4244 8.97852 17.4244C6.80754 17.4243 4.92634 16.7035 3.33008 15.2614C1.76096 13.8436 0.864511 12.0824 0.634766 9.97424H2.15625C2.38617 11.6731 3.14025 13.0863 4.41895 14.2096C5.71923 15.3518 7.24041 15.9243 8.97852 15.9244C10.9027 15.9244 12.5364 15.2551 13.873 13.9186C15.2097 12.5819 15.8789 10.9483 15.8789 9.02405C15.8789 7.09975 15.2097 5.46616 13.873 4.12952C12.5364 2.79303 10.9027 2.12366 8.97852 2.12366C7.74316 2.12373 6.59648 2.42986 5.54004 3.04065C4.48336 3.65165 3.64509 4.49653 3.02734 5.57385L2.94141 5.72424H5.47852V7.22424H0.774414C1.19506 5.31776 2.15731 3.74875 3.66602 2.51428C5.20624 1.2541 6.9758 0.623755 8.97852 0.623657ZM9.72852 4.87366V8.72522L12.4072 11.4039L11.3584 12.4518L8.22852 9.3219V4.87366H9.72852Z" fill="#838D98" stroke="#F2F6FA" stroke-width="0.2"/>
</svg>
