<svg width="40" height="41" viewBox="0 0 40 41" fill="none" xmlns="http://www.w3.org/2000/svg">
<g clip-path="url(#clip0_478_153)">
<path fill-rule="evenodd" clip-rule="evenodd" d="M20.397 7.17192C12.6338 7.17192 6.34047 13.4652 6.34047 21.2284C6.34047 28.9916 12.6338 35.2849 20.397 35.2849C28.1602 35.2849 34.4535 28.9916 34.4535 21.2284C34.4535 13.4652 28.1602 7.17192 20.397 7.17192ZM4.06104 21.2284C4.06104 12.2063 11.3749 4.89249 20.397 4.89249C29.4191 4.89249 36.7329 12.2063 36.7329 21.2284C36.7329 30.2505 29.4191 37.5644 20.397 37.5644C11.3749 37.5644 4.06104 30.2505 4.06104 21.2284Z" fill="#3284FF"/>
<path fill-rule="evenodd" clip-rule="evenodd" d="M20.397 18.5691C21.0265 18.5691 21.5368 19.0794 21.5368 19.7088V28.8265C21.5368 29.456 21.0265 29.9663 20.397 29.9663C19.7676 29.9663 19.2573 29.456 19.2573 28.8265V19.7088C19.2573 19.0794 19.7676 18.5691 20.397 18.5691Z" fill="#3284FF"/>
<path d="M20.397 15.9207C20.8227 15.9207 21.1674 15.5759 21.1675 15.1502C21.1675 14.7244 20.8227 14.3797 20.397 14.3797C19.9713 14.3797 19.6265 14.7245 19.6265 15.1502C19.6265 15.5759 19.9713 15.9206 20.397 15.9207Z" fill="#3284FF" stroke="#3284FF" stroke-width="1.49746"/>
</g>
<defs>
<clipPath id="clip0_478_153">
<rect width="40" height="40" fill="white" transform="translate(0 0.762024)"/>
</clipPath>
</defs>
</svg>
