<svg width="24" height="25" viewBox="0 0 24 25" fill="none" xmlns="http://www.w3.org/2000/svg">
<g opacity="0.7">
<path d="M8.25 11.512L11.25 4.76202C11.8467 4.76202 12.419 4.99908 12.841 5.42103C13.2629 5.84299 13.5 6.41529 13.5 7.01202V10.012H17.745C17.9624 10.0096 18.1778 10.0544 18.3762 10.1434C18.5746 10.2325 18.7512 10.3636 18.8939 10.5277C19.0366 10.6917 19.1419 10.8849 19.2025 11.0937C19.2631 11.3025 19.2776 11.522 19.245 11.737L18.21 18.487C18.1558 18.8447 17.9741 19.1707 17.6984 19.405C17.4228 19.6393 17.0717 19.7661 16.71 19.762H8.25M8.25 11.512V19.762M8.25 11.512H6C5.60218 11.512 5.22064 11.6701 4.93934 11.9514C4.65804 12.2327 4.5 12.6142 4.5 13.012V18.262C4.5 18.6598 4.65804 19.0414 4.93934 19.3227C5.22064 19.604 5.60218 19.762 6 19.762H8.25" stroke="#2D5B85" stroke-width="1.5" stroke-linecap="round" stroke-linejoin="round"/>
</g>
</svg>
