<svg width="18" height="19" viewBox="0 0 18 19" fill="none" xmlns="http://www.w3.org/2000/svg">
<rect y="0.762024" width="18" height="18" rx="3" fill="#3284FF" fill-opacity="0.14"/>
<path d="M8 10.0835C8.21473 10.3706 8.48868 10.6081 8.80328 10.78C9.11787 10.9519 9.46575 11.0541 9.82333 11.0797C10.1809 11.1053 10.5398 11.0537 10.8757 10.9284C11.2116 10.8031 11.5166 10.6071 11.77 10.3535L13.27 8.85354C13.7254 8.38203 13.9774 7.75053 13.9717 7.09504C13.966 6.43954 13.7031 5.81251 13.2395 5.34899C12.776 4.88547 12.149 4.62255 11.4935 4.61685C10.838 4.61116 10.2065 4.86314 9.735 5.31854L8.875 6.17354" stroke="#3284FF" stroke-linecap="round" stroke-linejoin="round"/>
<path d="M10.0001 9.08355C9.78537 8.79648 9.51142 8.55896 9.19682 8.38708C8.88223 8.2152 8.53435 8.11299 8.17677 8.08738C7.8192 8.06177 7.46031 8.11336 7.12443 8.23866C6.78855 8.36395 6.48354 8.56001 6.2301 8.81355L4.7301 10.3135C4.2747 10.7851 4.02272 11.4166 4.02841 12.0721C4.03411 12.7275 4.29703 13.3546 4.76055 13.8181C5.22407 14.2816 5.8511 14.5445 6.5066 14.5502C7.16209 14.5559 7.79359 14.3039 8.2651 13.8485L9.1201 12.9935" stroke="#3284FF" stroke-linecap="round" stroke-linejoin="round"/>
</svg>
