<svg width="24" height="24" viewBox="0 0 24 24" fill="none" xmlns="http://www.w3.org/2000/svg">
<path d="M2 12.0156C2 11.4147 2.3016 10.8138 2.9047 10.5133C4.9151 9.31139 8.7348 7.2081 11.5494 5.8059C13.9619 4.6041 17.279 3.2019 19.591 2.2003C19.792 2.1002 20.0936 2 20.2946 2C20.6967 2 21.1993 2.20029 21.5008 2.5008C22.0034 3.00159 22.104 3.7027 21.9029 4.4038L19.792 10.6135C19.6915 11.0141 19.2894 11.2144 18.8873 11.2144L13.8613 11.2144C13.4593 11.2144 13.0572 11.5149 13.0572 12.0156C13.0572 12.5164 13.3587 12.8169 13.8613 12.8169L18.8873 12.8169C19.2894 12.8169 19.6915 13.1174 19.792 13.518L21.9029 19.7277C22.104 20.3286 22.0034 21.0297 21.4003 21.5305C20.8977 22.0313 20.1941 22.1315 19.591 21.831C17.6811 21.0297 14.0624 19.4272 11.5494 18.2253C8.7348 16.8232 4.9151 14.6197 2.9047 13.518C2.3016 13.2175 2 12.6166 2 12.0156Z" fill="#2D5B85"/>
</svg>
