<svg width="24" height="25" viewBox="0 0 24 25" fill="none" xmlns="http://www.w3.org/2000/svg">
<rect y="0.761963" width="24" height="24" rx="4" fill="#2D5B85"/>
<path d="M8.25 11.512L11.25 4.76196C11.8467 4.76196 12.419 4.99902 12.841 5.42097C13.2629 5.84293 13.5 6.41523 13.5 7.01196V10.012H17.745C17.9624 10.0095 18.1778 10.0543 18.3762 10.1434C18.5746 10.2324 18.7512 10.3635 18.8939 10.5276C19.0366 10.6917 19.1419 10.8848 19.2025 11.0937C19.2631 11.3025 19.2776 11.522 19.245 11.737L18.21 18.487C18.1558 18.8446 17.9741 19.1707 17.6984 19.405C17.4228 19.6393 17.0717 19.7661 16.71 19.762H8.25M8.25 11.512V19.762M8.25 11.512H6C5.60218 11.512 5.22064 11.67 4.93934 11.9513C4.65804 12.2326 4.5 12.6141 4.5 13.012V18.262C4.5 18.6598 4.65804 19.0413 4.93934 19.3226C5.22064 19.6039 5.60218 19.762 6 19.762H8.25" stroke="white" stroke-width="1.5" stroke-linecap="round" stroke-linejoin="round"/>
</svg>
