<svg width="32" height="33" viewBox="0 0 32 33" fill="none" xmlns="http://www.w3.org/2000/svg">
<rect y="0.762207" width="32" height="32" rx="16" fill="url(#paint0_radial_103_41)"/>
<path d="M17.6068 11.5379C17.6972 11.3455 17.9709 11.3455 18.0613 11.5379L20.2791 16.2592C20.304 16.3122 20.3466 16.3548 20.3996 16.3797L25.1209 18.5975C25.3133 18.6879 25.3133 18.9616 25.1209 19.052L20.3996 21.2698C20.3466 21.2947 20.304 21.3373 20.2791 21.3903L18.0613 26.1116C17.9709 26.304 17.6972 26.304 17.6068 26.1116L15.389 21.3903C15.3641 21.3373 15.3215 21.2947 15.2685 21.2698L10.5472 19.052C10.3548 18.9616 10.3548 18.6879 10.5472 18.5975L15.2685 16.3797C15.3215 16.3548 15.3641 16.3122 15.389 16.2592L17.6068 11.5379Z" fill="white"/>
<path d="M9.28773 9.5306C9.37812 9.33818 9.65181 9.33818 9.74219 9.5306L10.661 11.4865C10.6859 11.5395 10.7285 11.5821 10.7815 11.607L12.7374 12.5258C12.9298 12.6162 12.9298 12.8898 12.7374 12.9802L10.7815 13.899C10.7285 13.9239 10.6859 13.9665 10.661 14.0195L9.74219 15.9754C9.65181 16.1678 9.37812 16.1678 9.28773 15.9754L8.36895 14.0195C8.34406 13.9665 8.30144 13.9239 8.24846 13.899L6.29256 12.9802C6.10015 12.8898 6.10015 12.6162 6.29256 12.5258L8.24846 11.607C8.30144 11.5821 8.34406 11.5395 8.36895 11.4865L9.28773 9.5306Z" fill="white"/>
<path d="M15.2471 7.05827C15.2923 6.96206 15.4291 6.96206 15.4743 7.05827L15.974 8.12213C15.9865 8.14862 16.0078 8.16993 16.0343 8.18237L17.0981 8.68212C17.1944 8.72732 17.1944 8.86416 17.0981 8.90935L16.0343 9.4091C16.0078 9.42154 15.9865 9.44285 15.974 9.46934L15.4743 10.5332C15.4291 10.6294 15.2923 10.6294 15.2471 10.5332L14.7473 9.46934C14.7349 9.44285 14.7136 9.42154 14.6871 9.4091L13.6232 8.90935C13.527 8.86416 13.527 8.72732 13.6232 8.68212L14.6871 8.18237C14.7136 8.16993 14.7349 8.14862 14.7473 8.12213L15.2471 7.05827Z" fill="white"/>
<defs>
<radialGradient id="paint0_radial_103_41" cx="0" cy="0" r="1" gradientUnits="userSpaceOnUse" gradientTransform="translate(-3.69343 -2.90153) rotate(46.7357) scale(40.5293 67.9607)">
<stop stop-color="#3284FF"/>
<stop offset="1" stop-color="#D65CFF"/>
</radialGradient>
</defs>
</svg>
