<svg width="26" height="26" viewBox="0 0 26 26" fill="none" xmlns="http://www.w3.org/2000/svg">
<path d="M4.18079 1.0596C4.27666 1.05931 4.27666 1.05931 4.37446 1.05901C4.445 1.05905 4.51553 1.05909 4.58606 1.05914C4.6613 1.05901 4.73653 1.05886 4.81177 1.05868C5.01834 1.05827 5.22491 1.05818 5.43148 1.05815C5.65435 1.05805 5.87721 1.05767 6.10007 1.05733C6.58733 1.05664 7.07458 1.05633 7.56184 1.05611C7.86619 1.05597 8.17053 1.05575 8.47488 1.05552C9.31782 1.0549 10.1608 1.05438 11.0037 1.05421C11.0576 1.0542 11.1116 1.05419 11.1671 1.05417C11.2212 1.05416 11.2753 1.05415 11.331 1.05414C11.4405 1.05412 11.5501 1.0541 11.6596 1.05407C11.7411 1.05406 11.7411 1.05406 11.8243 1.05404C12.7045 1.05384 13.5848 1.05295 14.4651 1.05177C15.3693 1.05056 16.2734 1.04993 17.1775 1.04987C17.685 1.04983 18.1925 1.04954 18.7 1.04861C19.1322 1.04783 19.5644 1.04757 19.9966 1.04799C20.2169 1.04819 20.4373 1.04814 20.6577 1.04743C20.8597 1.04678 21.0618 1.04684 21.2638 1.04746C21.3366 1.04756 21.4094 1.0474 21.4822 1.04696C22.5068 1.0411 23.3012 1.34238 24.0546 2.03746C24.5943 2.5985 24.938 3.39092 24.9412 4.16883C24.9417 4.26023 24.9417 4.26023 24.9423 4.35348C24.9424 4.41964 24.9426 4.48581 24.9427 4.55399C24.943 4.62492 24.9434 4.69585 24.9437 4.76677C24.9448 4.99892 24.9453 5.23107 24.9458 5.46321C24.946 5.54334 24.9462 5.62347 24.9464 5.7036C24.9474 6.08 24.9481 6.45639 24.9486 6.83279C24.9491 7.26653 24.9504 7.70025 24.9524 8.13398C24.954 8.46982 24.9547 8.80565 24.9549 9.14149C24.955 9.34182 24.9555 9.54215 24.9567 9.74248C24.9579 9.93097 24.9581 10.1194 24.9576 10.3079C24.9576 10.4096 24.9585 10.5113 24.9596 10.613C24.9572 11.0236 24.918 11.31 24.6419 11.63C24.6136 11.6526 24.5852 11.6753 24.556 11.6986C24.5278 11.722 24.4996 11.7455 24.4705 11.7696C24.1826 11.9576 23.8974 11.9765 23.5626 11.9335C23.2008 11.8188 22.9885 11.6509 22.8009 11.3241C22.7489 11.1682 22.7434 11.0614 22.7428 10.8982C22.7424 10.8414 22.7421 10.7846 22.7417 10.726C22.7415 10.6325 22.7415 10.6325 22.7413 10.5371C22.7408 10.4363 22.7403 10.3355 22.7397 10.2347C22.7392 10.1263 22.7388 10.0178 22.7385 9.9094C22.7377 9.68315 22.7365 9.4569 22.7352 9.23065C22.7315 8.58725 22.7285 7.94385 22.7259 7.30044C22.7245 6.94514 22.7227 6.58984 22.7205 6.23454C22.7191 6.00997 22.7182 5.78541 22.7176 5.56083C22.7171 5.38761 22.7158 5.21439 22.7147 5.04117C22.7147 4.94855 22.7147 4.94855 22.7146 4.85406C22.7108 4.40093 22.7033 3.96276 22.3947 3.60533C22.0726 3.35143 21.7838 3.29439 21.3761 3.29411C21.3153 3.29395 21.2544 3.29379 21.1917 3.29362C21.1253 3.2937 21.0589 3.29378 20.9905 3.29386C20.9189 3.29376 20.8473 3.29365 20.7757 3.29351C20.5791 3.2932 20.3826 3.2932 20.186 3.29326C19.974 3.29327 19.7619 3.29299 19.5499 3.29275C19.1345 3.29233 18.7191 3.29219 18.3038 3.29216C17.9662 3.29214 17.6285 3.29204 17.2909 3.29187C16.3337 3.29143 15.3765 3.29119 14.4193 3.29123C14.3677 3.29123 14.3161 3.29124 14.263 3.29124C14.1855 3.29124 14.1855 3.29124 14.1064 3.29124C13.269 3.29126 12.4316 3.29078 11.5942 3.29006C10.7344 3.28933 9.87455 3.28898 9.01471 3.28903C8.53197 3.28904 8.04924 3.2889 7.5665 3.28836C7.15553 3.28789 6.74457 3.28778 6.3336 3.28813C6.12395 3.28829 5.9143 3.2883 5.70465 3.28786C5.51263 3.28746 5.32062 3.28753 5.12861 3.28797C5.02644 3.28809 4.92427 3.2877 4.8221 3.2873C4.36884 3.28903 3.96738 3.29982 3.60559 3.60533C3.2967 3.98853 3.29328 4.38324 3.29411 4.85784C3.29394 4.9306 3.29394 4.9306 3.29377 5.00483C3.29345 5.16687 3.29349 5.32892 3.29353 5.49096C3.29338 5.60734 3.2932 5.72372 3.29301 5.8401C3.29256 6.15591 3.29244 6.47172 3.29241 6.78753C3.29237 6.98489 3.29227 7.18225 3.29213 7.37961C3.29169 8.03276 3.29145 8.68591 3.29149 9.33906C3.29149 9.39182 3.29149 9.39182 3.29149 9.44565C3.2915 9.49847 3.2915 9.49847 3.2915 9.55236C3.29152 10.1231 3.29104 10.6938 3.29032 11.2645C3.28959 11.8512 3.28925 12.4378 3.28928 13.0245C3.2893 13.3536 3.28915 13.6827 3.28861 14.0118C3.28812 14.3213 3.28812 14.6308 3.28849 14.9403C3.28854 15.0538 3.28842 15.1673 3.28811 15.2807C3.28772 15.4359 3.28796 15.591 3.28835 15.7462C3.28809 15.7908 3.28783 15.8355 3.28756 15.8815C3.28959 16.2473 3.30451 16.6462 3.56116 16.9291C3.58852 16.9609 3.61588 16.9927 3.64407 17.0255C4.07492 17.3572 4.60561 17.2864 5.12129 17.2833C5.53037 17.2883 5.85784 17.3239 6.19544 17.5702C6.45938 17.8489 6.50766 18.1073 6.50894 18.4782C6.50928 18.5189 6.50962 18.5596 6.50997 18.6016C6.51068 18.69 6.51128 18.7785 6.51179 18.8669C6.51263 19.0069 6.51381 19.1469 6.51509 19.287C6.51868 19.6851 6.52173 20.0832 6.52434 20.4813C6.52595 20.7248 6.52805 20.9683 6.53044 21.2118C6.53125 21.3045 6.53188 21.3973 6.53231 21.4901C6.53293 21.6199 6.53416 21.7497 6.53552 21.8795C6.53555 21.9178 6.53558 21.956 6.53561 21.9955C6.53929 22.261 6.5625 22.4568 6.75403 22.6483C6.91874 22.6866 6.91874 22.6866 7.1095 22.6483C7.43688 22.4194 7.71378 22.1006 7.99361 21.8175C8.06416 21.7465 8.13472 21.6754 8.20528 21.6044C8.28033 21.5288 8.35532 21.4531 8.4303 21.3774C8.58724 21.2191 8.74445 21.061 8.90173 20.903C8.95579 20.8487 9.00985 20.7943 9.06391 20.74C9.10449 20.6993 9.10449 20.6993 9.14588 20.6577C9.5114 20.2903 9.87667 19.9227 10.2414 19.5546C10.4883 19.3055 10.7356 19.0567 10.9833 18.8083C11.114 18.6771 11.2445 18.5458 11.3746 18.414C11.5196 18.2671 11.6654 18.121 11.8113 17.975C11.8539 17.9317 11.8964 17.8883 11.9402 17.8437C12.213 17.5723 12.4632 17.3558 12.8541 17.2893C13.2793 17.2939 13.5471 17.3591 13.8539 17.659C14.0571 17.961 14.178 18.266 14.1173 18.6366C13.9972 19.0577 13.7136 19.3302 13.4097 19.6301C13.3579 19.6822 13.3062 19.7343 13.2545 19.7864C13.1148 19.9271 12.9743 20.0669 12.8336 20.2066C12.6859 20.3535 12.5389 20.501 12.3917 20.6484C12.1445 20.8959 11.8967 21.1428 11.6487 21.3894C11.3628 21.6737 11.0777 21.9588 10.793 22.2444C10.5182 22.52 10.2427 22.7951 9.96707 23.0699C9.85023 23.1864 9.73359 23.3031 9.61711 23.4199C9.4796 23.5578 9.3416 23.6952 9.20321 23.8322C9.15281 23.8823 9.10257 23.9325 9.05252 23.9829C8.45368 24.5857 7.81482 24.9491 6.94763 24.9557C6.28971 24.9444 5.60043 24.7209 5.11137 24.2642C4.4725 23.5604 4.29924 22.8863 4.30661 21.9546C4.3068 21.8835 4.30695 21.8125 4.30705 21.7414C4.30743 21.5558 4.30843 21.3702 4.30956 21.1847C4.3106 20.9947 4.31106 20.8047 4.31157 20.6148C4.31265 20.2431 4.31438 19.8715 4.31653 19.4999C4.27841 19.5003 4.2403 19.5006 4.20103 19.5011C4.12584 19.5015 4.12584 19.5015 4.04913 19.502C3.9995 19.5024 3.94986 19.5028 3.89872 19.5032C3.15285 19.4857 2.45112 19.0362 1.92981 18.535C1.3323 17.8716 1.04978 17.1023 1.05329 16.2171C1.0531 16.1645 1.0529 16.1119 1.0527 16.0577C1.05218 15.8822 1.05238 15.7068 1.05258 15.5314C1.05236 15.4053 1.0521 15.2791 1.0518 15.153C1.05119 14.8464 1.05106 14.5399 1.05118 14.2333C1.05127 13.984 1.05118 13.7346 1.05096 13.4853C1.05093 13.4497 1.0509 13.4142 1.05087 13.3775C1.05081 13.3053 1.05075 13.233 1.05068 13.1608C1.05013 12.4839 1.05024 11.8071 1.05055 11.1302C1.05081 10.512 1.05024 9.8938 1.04928 9.27557C1.04829 8.63974 1.04787 8.00392 1.04806 7.36809C1.04816 7.01154 1.04804 6.65499 1.04732 6.29844C1.04665 5.96303 1.04678 5.62763 1.04744 5.29222C1.04756 5.1694 1.04742 5.04657 1.047 4.92375C1.04337 3.77762 1.19187 2.8325 2.01868 1.96764C2.61245 1.40337 3.35459 1.06055 4.18079 1.0596Z" fill="#2D5B85"/>
<path d="M21.0911 14.146C21.3858 14.3167 21.5736 14.5603 21.6846 14.8792C21.6968 15.0022 21.6968 15.0022 21.6962 15.1318C21.6962 15.1805 21.6961 15.2293 21.6961 15.2796C21.6956 15.3316 21.6951 15.3836 21.6945 15.4372C21.6944 15.4909 21.6943 15.5447 21.6941 15.6C21.6935 15.7713 21.6923 15.9425 21.691 16.1138C21.6905 16.2301 21.69 16.3463 21.6896 16.4626C21.6885 16.7473 21.6868 17.032 21.6846 17.3167C21.7143 17.3162 21.7439 17.3158 21.7744 17.3153C22.0842 17.3108 22.3939 17.3077 22.7037 17.3055C22.8192 17.3045 22.9346 17.3031 23.0501 17.3014C23.2165 17.2989 23.3828 17.2977 23.5493 17.2968C23.6261 17.2953 23.6261 17.2953 23.7045 17.2937C24.0745 17.2935 24.3477 17.3639 24.6311 17.6085C24.6538 17.6368 24.6764 17.6652 24.6998 17.6944C24.7349 17.7367 24.7349 17.7367 24.7708 17.7799C24.9588 18.0678 24.9777 18.353 24.9346 18.6878C24.82 19.0496 24.6521 19.2619 24.3253 19.4495C24.1765 19.4991 24.082 19.5064 23.9272 19.506C23.8525 19.506 23.8525 19.506 23.7763 19.506C23.7226 19.5058 23.669 19.5055 23.6137 19.5052C23.5587 19.5052 23.5037 19.5051 23.447 19.505C23.2711 19.5047 23.0952 19.5041 22.9193 19.5034C22.8001 19.5032 22.6809 19.503 22.5617 19.5027C22.2693 19.5022 21.977 19.5013 21.6846 19.5003C21.6852 19.5297 21.6858 19.5591 21.6863 19.5894C21.692 19.8975 21.6958 20.2056 21.6986 20.5138C21.6998 20.6285 21.7016 20.7433 21.7038 20.858C21.7069 21.0237 21.7083 21.1893 21.7094 21.355C21.7114 21.431 21.7114 21.431 21.7134 21.5086C21.7135 21.8688 21.6362 22.1463 21.4307 22.4456C21.1268 22.7357 20.8344 22.7689 20.4302 22.764C20.1449 22.7406 19.9598 22.6598 19.7661 22.4486C19.5843 22.2158 19.4945 22.0424 19.4953 21.7428C19.4953 21.693 19.4953 21.6432 19.4953 21.5919C19.4955 21.5383 19.4958 21.4846 19.4961 21.4294C19.4962 21.3743 19.4962 21.3193 19.4963 21.2627C19.4966 21.0867 19.4972 20.9108 19.4979 20.7349C19.4981 20.6157 19.4983 20.4965 19.4986 20.3773C19.4991 20.085 19.5 19.7926 19.501 19.5003C19.4708 19.5007 19.4405 19.5012 19.4093 19.5016C19.093 19.5061 18.7766 19.5092 18.4602 19.5114C18.3423 19.5124 18.2244 19.5138 18.1065 19.5156C17.9366 19.5181 17.7667 19.5192 17.5967 19.5201C17.5444 19.5212 17.4921 19.5222 17.4382 19.5233C17.1163 19.5234 16.8751 19.4818 16.6065 19.2971C16.502 19.192 16.502 19.192 16.4319 19.0877C16.4079 19.053 16.3839 19.0183 16.3591 18.9825C16.243 18.7969 16.2411 18.6664 16.2383 18.4466C16.237 18.385 16.2357 18.3235 16.2344 18.2601C16.2642 17.9352 16.412 17.727 16.6573 17.5198C16.9755 17.3061 17.2609 17.2892 17.6364 17.2968C17.6899 17.2971 17.7435 17.2974 17.7986 17.2977C17.9683 17.2988 18.138 17.3014 18.3077 17.304C18.4233 17.305 18.5388 17.3059 18.6544 17.3068C18.9366 17.309 19.2188 17.3124 19.501 17.3167C19.5007 17.2862 19.5004 17.2557 19.5 17.2243C19.4966 16.9063 19.4943 16.5883 19.4927 16.2703C19.4919 16.1517 19.4909 16.0331 19.4895 15.9145C19.4877 15.7438 19.4868 15.5731 19.4862 15.4025C19.4854 15.3496 19.4846 15.2967 19.4838 15.2423C19.4837 14.8882 19.5325 14.6688 19.7645 14.3904C20.1528 14.0625 20.6047 13.9312 21.0911 14.146Z" fill="#2D5B85"/>
</svg>
