<svg width="60" height="24" viewBox="0 0 60 24" fill="none" xmlns="http://www.w3.org/2000/svg">
<path d="M31.5457 17.7381H30.1074L28.6922 14.2126L27.2668 17.7381H25.8285L23.6479 12.3218H25.3297L26.5477 15.7666L27.9277 12.3218H29.4465L30.8265 15.7666L32.0445 12.3218H33.7262L31.5457 17.7381Z" fill="#5A6F86"/>
<path d="M39.1639 15.5691H35.5339C35.6727 16.2762 36.2873 16.578 37.111 16.578C37.6641 16.5677 38.212 16.4699 38.7345 16.2882V17.5997C38.2127 17.7839 37.6643 17.8818 37.111 17.8894C35.1164 17.8894 33.9336 16.8111 33.9336 15.036C33.9336 13.3217 34.9622 12.1714 36.601 12.1714C38.2707 12.1714 39.199 13.32 39.199 15.036C39.1993 15.2143 39.1875 15.3924 39.1639 15.5691ZM36.601 13.3885C36.0679 13.3885 35.6496 13.7477 35.557 14.3391H37.6673C37.5636 13.6902 37.1462 13.3885 36.601 13.3885Z" fill="#5A6F86"/>
<path d="M42.8287 17.8888C41.9946 17.8683 41.1657 17.7515 40.3584 17.5408V9.23682H41.9013V12.3225C42.2026 12.231 42.5148 12.1803 42.8295 12.1717C44.5807 12.1717 45.6127 13.3425 45.6127 15.0362C45.6127 16.73 44.5807 17.8888 42.8287 17.8888ZM42.8287 13.4814C42.5157 13.4812 42.2038 13.5201 41.9004 13.5971V16.4737C42.2053 16.5411 42.5164 16.5762 42.8287 16.5782C43.571 16.5782 43.9884 16.0451 43.9884 15.0354C43.9884 14.0257 43.571 13.4857 42.8287 13.4857V13.4814Z" fill="#5A6F86"/>
<path d="M48.3143 17.7381H46.7715V12.3218H48.3143V17.7381Z" fill="#5A6F86"/>
<path d="M53.3829 17.738L51.9798 16.0571L51.4115 16.7068V17.7354H49.8687V9.23682H51.4115V14.6531L53.3829 12.3217H55.2035L52.8609 15.0354L55.2035 17.738H53.3829Z" fill="#5A6F86"/>
<path d="M57.5647 17.8889C56.9239 17.8822 56.2873 17.7847 55.6738 17.5992V16.2886C56.289 16.4661 56.9246 16.5635 57.5647 16.5783C58.2375 16.5783 58.4347 16.3692 58.4347 16.1498C58.4347 15.9303 58.2633 15.7666 57.797 15.7666C56.405 15.7666 55.5933 15.2103 55.5933 14.0266C55.5933 13.0983 56.4281 12.1709 58.0284 12.1709C58.6729 12.1768 59.3133 12.2743 59.9304 12.4606V13.7832C59.3133 13.5956 58.6733 13.4941 58.0284 13.4815C57.3556 13.4815 57.1584 13.6906 57.1584 13.91C57.1584 14.1295 57.3444 14.2923 57.7961 14.2923C59.1993 14.2923 59.9998 14.8495 59.9998 16.0323C59.9998 16.9606 59.177 17.8889 57.5647 17.8889Z" fill="#5A6F86"/>
<path d="M48.3205 9.90039H46.7725V11.4484H48.3205V9.90039Z" fill="#5A6F86"/>
<path opacity="0.5" d="M20.7264 1.60649L14.4607 0.762207L10.5513 5.83392L16.8153 6.62935L20.7264 1.60649Z" fill="#5A6F86"/>
<path d="M19.3731 13.0674L15.522 18.0654L17.9571 23.9214L21.8108 18.9225L19.3731 13.0674Z" fill="#5A6F86"/>
<path opacity="0.78" d="M10.1639 5.99337L3.90932 5.13623L0.0341797 10.1719L6.28447 11.0154L10.1639 5.99337Z" fill="#5A6F86"/>
<path d="M15.3281 18.1444L9.02637 17.3301L11.4349 23.1458L17.7667 24.0004L15.3281 18.1444Z" fill="#5A6F86"/>
<path opacity="0.78" d="M0 10.3809L2.42314 16.2309L8.688 17.0734L6.25543 11.2234L0 10.3809Z" fill="#5A6F86"/>
<path d="M19.206 12.9379L12.9394 12.0894L9.05225 17.1225L15.3548 17.9351L19.206 12.9379Z" fill="#5A6F86"/>
<path opacity="0.5" d="M19.428 12.6474L23.328 7.60053L20.8911 1.73682L16.9834 6.75796L19.428 12.6474Z" fill="#5A6F86"/>
<path opacity="0.78" d="M12.7747 11.9609L10.3284 6.12207L6.45068 11.1441L8.88326 16.9941L12.7747 11.9609Z" fill="#5A6F86"/>
<path opacity="0.5" d="M19.2341 12.7289L16.7878 6.83779L10.5229 6.0415L12.9692 11.8804L19.2341 12.7289Z" fill="#5A6F86"/>
</svg>
