<svg xmlns="http://www.w3.org/2000/svg" width="54" height="18" fill="none" xmlns:v="https://vecta.io/nano"><style><![CDATA[.B{fill:#81476a}.C{fill:#70c3af}.D{fill:#f4a256}]]></style><g clip-path="url(#A)"><g class="B"><use href="#B"/><use href="#C"/><use href="#D"/><use href="#E"/><use href="#F"/><use href="#G"/><use href="#H"/></g><use href="#I" class="C"/><use href="#J" class="B"/><use href="#K" class="D"/><use href="#L" class="B"/><use href="#M" class="D"/><use href="#N" class="B"/><use href="#O" class="C"/><use href="#P" class="D"/><use href="#Q" class="C"/><g class="B"><use href="#B"/><use href="#C"/><use href="#D"/><use href="#E"/><use href="#F"/><use href="#G"/><use href="#H"/></g><use href="#I" class="C"/><use href="#J" class="B"/><use href="#K" class="D"/><use href="#L" class="B"/><use href="#M" class="D"/><use href="#N" class="B"/><use href="#O" class="C"/><use href="#P" class="D"/><use href="#Q" class="C"/></g><path d="M4.546 14.836a2.5 2.5 0 0 1-.547-.062v-.485c.136.029.286.044.449.044.416 0 .713-.234.89-.7l.223-.569-1.613-4.021h.649l.876 2.28.358 1.127h.029l.182-.584 1.007-2.824h.649L5.98 13.595c-.175.455-.375.773-.598.956-.226.19-.505.285-.835.285zM.606 7.364v1.379l-.029.832h.029c.282-.399.693-.598 1.233-.598s.957.18 1.244.54.438.866.438 1.525-.147 1.166-.441 1.529-.705.544-1.24.544-.946-.196-1.233-.587H.562l-.128.514H0V7.364h.606zm2.284 3.663c0-.518-.091-.904-.274-1.157s-.472-.383-.868-.383-.686.118-.868.354-.274.635-.274 1.197.094.962.281 1.208.488.361.901.361c.367 0 .642-.134.825-.401s.277-.66.277-1.178z" class="B"/><defs><clipPath id="A"><path fill="#fff" transform="translate(8.591)" d="M0 0h45.409v17.182H0z"/></clipPath><path id="B" d="M32.456 12.548h-1.089l-1.072-2.611-1.08 2.611h-1.089l-1.651-4.011h1.271l.922 2.551 1.045-2.551h1.15l1.045 2.551.922-2.551h1.276l-1.651 4.011z"/><path id="C" d="M38.245 10.941h-2.753c.105.523.571.746 1.196.746.419-.008.835-.08 1.231-.214v.969a3.95 3.95 0 0 1-1.231.214c-1.513 0-2.41-.797-2.41-2.109 0-1.267.78-2.117 2.023-2.117 1.266 0 1.97.849 1.97 2.117 0 .132-.009.263-.027.394zm-1.944-1.612c-.404 0-.721.265-.792.703h1.601c-.079-.48-.396-.703-.809-.703z"/><path id="D" d="M41.007 12.68a8.34 8.34 0 0 1-1.866-.258V6.274h1.165v2.285a2.71 2.71 0 0 1 .701-.112c1.323 0 2.102.867 2.102 2.121s-.78 2.112-2.103 2.112zm0-3.263c-.236 0-.472.029-.701.086v2.13c.23.05.465.076.701.077.561 0 .876-.395.876-1.142s-.315-1.147-.876-1.147v-.003z"/><path id="E" d="M45.156 12.548h-1.164V8.537h1.164v4.011z"/><path id="F" d="M48.997 12.572l-1.058-1.245-.429.481v.762h-1.166V6.274h1.166v4.013l1.489-1.727h1.375l-1.77 2.01 1.77 2.002h-1.377z"/><path id="G" d="M52.159 12.656c-.485-.005-.966-.077-1.43-.214v-.969c.465.131.946.203 1.43.214.509 0 .658-.155.658-.317s-.13-.283-.482-.283c-1.053 0-1.666-.411-1.666-1.286 0-.686.631-1.372 1.841-1.372a5.25 5.25 0 0 1 1.438.214v.978c-.467-.139-.95-.214-1.438-.223-.509 0-.658.155-.658.317s.141.283.482.283c1.061 0 1.666.412 1.666 1.286.001.686-.622 1.372-1.841 1.372z"/><path id="H" d="M43.992 6.753h1.164V7.89h-1.164V6.753z"/><path id="I" d="M24.27.624L19.533 0l-2.955 3.747 4.736.588L24.27.624z"/><path id="J" d="M23.268 9.1l-2.917 3.694 1.845 4.328 2.92-3.695L23.268 9.1z"/><path id="K" d="M16.296 3.868l-4.742-.635-2.939 3.733 4.74.625 2.941-3.723z"/><path id="L" d="M20.17 12.851l-4.769-.602 1.823 4.301 4.791.632-1.846-4.331z"/><path id="M" d="M8.591 7.112l1.835 4.333 4.743.624-1.842-4.333-4.736-.624z"/><path id="N" d="M23.119 8.999l-4.747-.629-2.946 3.732 4.776.602 2.917-3.705z"/><path id="O" d="M23.303 8.765l2.951-3.727L24.411.706l-2.958 3.708 1.85 4.35z"/><path id="P" d="M18.256 8.284l-1.852-4.321-2.937 3.717 1.843 4.329 2.947-3.725z"/><path id="Q" d="M23.143 8.836l-1.85-4.346-4.74-.587 1.85 4.307 4.74.626z"/></defs></svg>